<svg width="420" height="120" viewBox="0 0 420 120" fill="none" xmlns="http://www.w3.org/2000/svg" role="img" aria-label="NeuroDirect">
  <defs>
    <linearGradient id="tealGold" x1="9" y1="17" x2="104" y2="105" gradientUnits="userSpaceOnUse">
      <stop stop-color="#0A2546"/>
      <stop offset="0.52" stop-color="#0FB5A8"/>
      <stop offset="1" stop-color="#C9A35C"/>
    </linearGradient>
    <filter id="soft" x="-20%" y="-20%" width="140%" height="140%">
      <feDropShadow dx="0" dy="8" stdDeviation="8" flood-color="#061A35" flood-opacity="0.16"/>
    </filter>
  </defs>
  <g filter="url(#soft)">
    <path d="M39 19C26 19 18 28 18 40c-10 4-15 13-15 25 0 13 8 23 20 27 3 12 13 20 26 20 11 0 20-6 25-15 5 9 14 15 25 15 14 0 24-9 27-22 10-5 16-14 16-26s-6-21-16-26c-3-13-13-22-27-22-10 0-19 5-24 14-5-8-14-11-26-11Z" stroke="url(#tealGold)" stroke-width="8" stroke-linecap="round" stroke-linejoin="round"/>
    <path d="M74 28v66" stroke="#0A2546" stroke-width="7" stroke-linecap="round"/>
    <path d="M32 61h79" stroke="#C9A35C" stroke-width="7" stroke-linecap="round"/>
    <path d="M94 44l17 17-17 17" stroke="#C9A35C" stroke-width="7" stroke-linecap="round" stroke-linejoin="round"/>
    <circle cx="37" cy="45" r="7" fill="white" stroke="#C9A35C" stroke-width="5"/>
    <circle cx="43" cy="83" r="7" fill="white" stroke="#0A2546" stroke-width="5"/>
  </g>
  <text x="160" y="66" fill="#061A35" font-family="Inter, Arial, Helvetica, sans-serif" font-size="42" font-weight="800" letter-spacing="-1.8">Neuro</text>
  <text x="294" y="66" fill="#061A35" font-family="Inter, Arial, Helvetica, sans-serif" font-size="42" font-weight="300" letter-spacing="-1.8">Direct</text>
  <path d="M163 86h70" stroke="#C9A35C" stroke-width="3" stroke-linecap="round"/>
  <path d="M247 86h70" stroke="#0FB5A8" stroke-width="3" stroke-linecap="round"/>
  <text x="163" y="104" fill="#58657A" font-family="Inter, Arial, Helvetica, sans-serif" font-size="11" font-weight="600" letter-spacing="6">SUPPORT • FOCUS • GROW</text>
</svg>
